<svg width="33" height="31" viewBox="0 0 33 31" fill="none" xmlns="http://www.w3.org/2000/svg">
<path d="M13.8156 29.6834C14.6834 29.6834 15.387 28.9798 15.387 28.112C15.387 27.2441 14.6834 26.5405 13.8156 26.5405C12.9477 26.5405 12.2441 27.2441 12.2441 28.112C12.2441 28.9798 12.9477 29.6834 13.8156 29.6834Z" fill="white" stroke="white" stroke-width="1.5" stroke-linecap="round" stroke-linejoin="round"/>
<path d="M24.8156 29.6834C25.6834 29.6834 26.387 28.9798 26.387 28.112C26.387 27.2441 25.6834 26.5405 24.8156 26.5405C23.9477 26.5405 23.2441 27.2441 23.2441 28.112C23.2441 28.9798 23.9477 29.6834 24.8156 29.6834Z" fill="white" stroke="white" stroke-width="1.5" stroke-linecap="round" stroke-linejoin="round"/>
<path d="M1.24414 1.39746H6.10658L9.75341 22.0628H29.2032" stroke="white" stroke-width="2" stroke-linecap="round" stroke-linejoin="round"/>
<path d="M9.10209 17.0619L28.7056 17.1996C28.8462 17.1996 28.9824 17.151 29.0912 17.0619C29.1999 16.9729 29.2744 16.8489 29.302 16.711L31.4901 5.77054C31.5078 5.68233 31.5056 5.59129 31.4838 5.504C31.462 5.41671 31.4211 5.33535 31.3641 5.26579C31.307 5.19623 31.2352 5.1402 31.1539 5.10175C31.0725 5.06331 30.9837 5.04339 30.8937 5.04346L7.11717 5.04346" stroke="white" stroke-width="2" stroke-linecap="round" stroke-linejoin="round"/>
</svg>
