<svg width="25" height="23" viewBox="0 0 25 23" fill="none" xmlns="http://www.w3.org/2000/svg">
<path d="M17.3386 2.10221C18.651 2.10596 19.9085 2.60655 20.8366 3.49464C21.7646 4.38274 22.2876 5.58618 22.2916 6.84213V16.321C22.2876 17.5769 21.7646 18.7803 20.8366 19.6684C19.9085 20.5565 18.651 21.0571 17.3386 21.0609H7.4338C6.1214 21.0571 4.86388 20.5565 3.93587 19.6684C3.00786 18.7803 2.48478 17.5769 2.48086 16.321V6.84213C2.48478 5.58618 3.00786 4.38274 3.93587 3.49464C4.86388 2.60655 6.1214 2.10596 7.4338 2.10221H17.3386ZM17.3386 0.206543H7.4338C3.62013 0.206543 0.5 3.19248 0.5 6.84213V16.321C0.5 19.9706 3.62013 22.9565 7.4338 22.9565H17.3386C21.1523 22.9565 24.2724 19.9706 24.2724 16.321V6.84213C24.2724 3.19248 21.1523 0.206543 17.3386 0.206543Z" fill="white"/>
<path d="M18.8247 6.84229C18.5308 6.84229 18.2435 6.75889 17.9992 6.60266C17.7549 6.44642 17.5644 6.22435 17.452 5.96454C17.3395 5.70472 17.3101 5.41883 17.3674 5.14302C17.4248 4.8672 17.5663 4.61385 17.7741 4.41499C17.9818 4.21614 18.2466 4.08072 18.5348 4.02586C18.823 3.97099 19.1217 3.99915 19.3932 4.10677C19.6647 4.21439 19.8968 4.39663 20.06 4.63046C20.2233 4.86429 20.3104 5.13919 20.3104 5.42041C20.3108 5.60725 20.2727 5.79232 20.1982 5.96501C20.1237 6.1377 20.0142 6.29461 19.8762 6.42672C19.7381 6.55884 19.5742 6.66356 19.3937 6.73487C19.2133 6.80618 19.0199 6.84269 18.8247 6.84229ZM12.3865 7.78986C13.1701 7.78986 13.9362 8.01225 14.5878 8.4289C15.2394 8.84556 15.7472 9.43776 16.0471 10.1306C16.347 10.8235 16.4255 11.5859 16.2726 12.3215C16.1197 13.057 15.7423 13.7326 15.1882 14.2629C14.6341 14.7932 13.9281 15.1544 13.1595 15.3007C12.3909 15.447 11.5942 15.3719 10.8702 15.0849C10.1462 14.7979 9.52736 14.3119 9.09198 13.6883C8.6566 13.0648 8.42422 12.3317 8.42422 11.5817C8.42534 10.5764 8.84315 9.61253 9.58598 8.90165C10.3288 8.19078 11.336 7.79094 12.3865 7.78986ZM12.3865 5.8942C11.211 5.8942 10.062 6.22777 9.08465 6.85272C8.10732 7.47767 7.34557 8.36593 6.89575 9.40519C6.44593 10.4444 6.32824 11.588 6.55756 12.6913C6.78687 13.7945 7.3529 14.808 8.18406 15.6034C9.01522 16.3988 10.0742 16.9405 11.227 17.1599C12.3799 17.3794 13.5748 17.2667 14.6608 16.8363C15.7468 16.4058 16.6749 15.6768 17.328 14.7415C17.981 13.8062 18.3296 12.7066 18.3296 11.5817C18.3296 10.0733 17.7034 8.62664 16.5889 7.56003C15.4743 6.49342 13.9627 5.8942 12.3865 5.8942Z" fill="white"/>
</svg>
