<svg width="138" height="142" viewBox="0 0 138 142" fill="none" xmlns="http://www.w3.org/2000/svg">
<g filter="url(#filter0_d_1_10076)">
<path d="M62.9712 10.3093C65.0544 6.94713 69.9456 6.94713 72.0288 10.3093C73.7748 13.1273 77.6431 13.6835 80.1124 11.4715C83.0584 8.83245 87.7515 10.2105 88.803 14.0233C89.6844 17.2192 93.2393 18.8426 96.2317 17.4159C99.8019 15.7137 103.917 18.3581 103.851 22.3128C103.797 25.6275 106.75 28.1867 110.023 27.6608C113.929 27.0334 117.132 30.73 115.955 34.5061C114.969 37.6711 117.081 40.9587 120.37 41.3763C124.294 41.8746 126.326 46.3238 124.133 49.6154C122.295 52.3743 123.396 56.1241 126.434 57.4513C130.058 59.0348 130.754 63.8762 127.723 66.4166C125.182 68.546 125.182 72.454 127.723 74.5834C130.754 77.1238 130.058 81.9652 126.434 83.5487C123.396 84.8759 122.295 88.6257 124.133 91.3846C126.326 94.6762 124.294 99.1254 120.37 99.6236C117.081 100.041 114.969 103.329 115.955 106.494C117.132 110.27 113.929 113.967 110.023 113.339C106.75 112.813 103.797 115.373 103.851 118.687C103.917 122.642 99.8019 125.286 96.2317 123.584C93.2393 122.157 89.6844 123.781 88.803 126.977C87.7515 130.79 83.0584 132.168 80.1124 129.528C77.6431 127.316 73.7748 127.873 72.0288 130.691C69.9456 134.053 65.0544 134.053 62.9712 130.691C61.2252 127.873 57.3569 127.316 54.8876 129.528C51.9416 132.168 47.2485 130.79 46.197 126.977C45.3156 123.781 41.7607 122.157 38.7683 123.584C35.1981 125.286 31.0833 122.642 31.1486 118.687C31.2033 115.373 28.2498 112.813 24.9766 113.339C21.0715 113.967 17.8684 110.27 19.0452 106.494C20.0315 103.329 17.9186 100.041 14.6299 99.6236C10.7062 99.1254 8.67433 94.6762 10.8673 91.3846C12.7053 88.6257 11.6043 84.8759 8.56645 83.5487C4.94205 81.9652 4.24596 77.1238 7.27742 74.5834C9.81831 72.454 9.81831 68.546 7.27742 66.4167C4.24596 63.8762 4.94205 59.0348 8.56645 57.4513C11.6043 56.1241 12.7053 52.3743 10.8673 49.6154C8.67433 46.3238 10.7062 41.8746 14.6299 41.3763C17.9186 40.9587 20.0315 37.6711 19.0452 34.5061C17.8684 30.73 21.0715 27.0334 24.9766 27.6608C28.2498 28.1867 31.2033 25.6275 31.1486 22.3128C31.0833 18.3581 35.1981 15.7137 38.7683 17.4159C41.7607 18.8426 45.3156 17.2192 46.197 14.0233C47.2485 10.2105 51.9416 8.83245 54.8876 11.4715C57.3569 13.6835 61.2252 13.1273 62.9712 10.3093Z" fill="#BBBBBB"/>
<path d="M65.9712 7.30928C68.0544 3.94713 72.9456 3.94713 75.0288 7.30928C76.7748 10.1273 80.6431 10.6835 83.1124 8.47152C86.0584 5.83245 90.7515 7.21048 91.803 11.0233C92.6844 14.2192 96.2393 15.8426 99.2317 14.4159C102.802 12.7137 106.917 15.3581 106.851 19.3128C106.797 22.6275 109.75 25.1867 113.023 24.6608C116.929 24.0334 120.132 27.73 118.955 31.5061C117.969 34.6711 120.081 37.9587 123.37 38.3763C127.294 38.8746 129.326 43.3238 127.133 46.6154C125.295 49.3743 126.396 53.1241 129.434 54.4513C133.058 56.0348 133.754 60.8762 130.723 63.4166C128.182 65.546 128.182 69.454 130.723 71.5834C133.754 74.1238 133.058 78.9652 129.434 80.5487C126.396 81.8759 125.295 85.6257 127.133 88.3846C129.326 91.6762 127.294 96.1254 123.37 96.6236C120.081 97.0413 117.969 100.329 118.955 103.494C120.132 107.27 116.929 110.967 113.023 110.339C109.75 109.813 106.797 112.373 106.851 115.687C106.917 119.642 102.802 122.286 99.2317 120.584C96.2393 119.157 92.6844 120.781 91.803 123.977C90.7515 127.79 86.0584 129.168 83.1124 126.528C80.6431 124.316 76.7748 124.873 75.0288 127.691C72.9456 131.053 68.0544 131.053 65.9712 127.691C64.2252 124.873 60.3569 124.316 57.8876 126.528C54.9416 129.168 50.2485 127.79 49.197 123.977C48.3156 120.781 44.7607 119.157 41.7683 120.584C38.1981 122.286 34.0833 119.642 34.1486 115.687C34.2033 112.373 31.2498 109.813 27.9766 110.339C24.0715 110.967 20.8684 107.27 22.0452 103.494C23.0315 100.329 20.9186 97.0413 17.6299 96.6236C13.7062 96.1254 11.6743 91.6762 13.8673 88.3846C15.7053 85.6257 14.6043 81.8759 11.5664 80.5487C7.94205 78.9652 7.24596 74.1238 10.2774 71.5834C12.8183 69.454 12.8183 65.546 10.2774 63.4167C7.24596 60.8762 7.94205 56.0348 11.5664 54.4513C14.6043 53.1241 15.7053 49.3743 13.8673 46.6154C11.6743 43.3238 13.7062 38.8746 17.6299 38.3763C20.9186 37.9587 23.0315 34.6711 22.0452 31.5061C20.8684 27.73 24.0715 24.0334 27.9766 24.6608C31.2498 25.1867 34.2033 22.6275 34.1486 19.3128C34.0833 15.3581 38.1981 12.7137 41.7683 14.4159C44.7607 15.8426 48.3156 14.2192 49.197 11.0233C50.2485 7.21047 54.9416 5.83245 57.8876 8.47152C60.3569 10.6835 64.2252 10.1273 65.9712 7.30928Z" fill="#292E36"/>
<path d="M73.0878 82.7999C73.8021 85.4659 73.4805 87.9746 72.1229 90.3261C70.7935 92.6286 68.6982 94.391 65.8371 95.6132L67.3744 101.351C67.4469 101.621 67.2127 101.829 66.6718 101.974C66.0922 102.129 65.7662 102.072 65.6937 101.801L64.2029 96.2374L63.3336 96.4703C61.5949 96.9362 59.7169 97.1909 57.6994 97.2346C55.6716 97.2396 54.2517 97.0403 53.4395 96.6367C53.2049 96.534 53.0142 96.4401 52.8672 96.3553C52.7485 96.2215 52.6478 96 52.5649 95.6909L49.9219 86.5225L49.9064 86.4646C49.865 86.31 49.9409 86.2069 50.1341 86.1551C50.3169 86.0647 50.4483 86.0916 50.5284 86.2358C52.2003 88.1482 53.658 89.7247 54.9014 90.9651C56.1345 92.1669 57.5193 93.1624 59.056 93.9516C60.5926 94.7408 62.1736 95.0004 63.7992 94.7305L59.8548 80.0098C59.249 79.758 58.312 79.4293 57.0438 79.0238C54.8683 78.3229 53.145 77.6873 51.8741 77.1168C50.6417 76.536 49.4981 75.745 48.443 74.744C47.388 73.7429 46.6431 72.431 46.2082 70.8083C45.4732 68.065 45.898 65.6322 47.4827 63.5097C49.106 61.3769 51.3303 59.787 54.1556 58.7401L52.8511 53.8719C52.8097 53.7173 52.8559 53.5807 52.9898 53.462C53.1623 53.333 53.3644 53.2374 53.5962 53.1753C53.828 53.1132 54.0316 53.1 54.2068 53.1359C54.3821 53.1718 54.4904 53.267 54.5318 53.4215L55.8208 58.2318L55.8787 58.2163C57.231 57.854 58.6389 57.6217 60.1023 57.5194C61.5553 57.3785 62.7534 57.3681 63.6966 57.4881C64.0858 57.5494 64.3642 57.6612 64.5318 57.8233C64.6892 57.9468 64.8041 58.1438 64.8765 58.4142L67.1593 66.9337C67.1904 67.0496 67.1197 67.1721 66.9472 67.3011C66.7644 67.3915 66.6381 67.3839 66.5684 67.2784L65.7362 66.259C64.3168 64.3618 62.8591 62.7853 61.3632 61.5297C59.8955 60.2251 58.1774 59.6088 56.209 59.6807L59.9049 73.4741L61.2659 73.917C63.5291 74.6357 65.3644 75.3035 66.772 75.9202C68.1796 76.5369 69.4702 77.4127 70.6439 78.5475C71.8073 79.6438 72.6219 81.0613 73.0878 82.7999ZM50.7792 66.5398C51.1933 68.0852 52.0052 69.3378 53.2148 70.2974C54.414 71.2184 55.9803 72.0411 57.9136 72.7654L54.4817 59.9572C52.9852 60.3996 51.873 61.1945 51.1452 62.342C50.4561 63.4791 50.3341 64.8784 50.7792 66.5398ZM65.4799 94.2802C66.7135 93.784 67.6028 93.0074 68.1478 91.9503C68.721 90.8442 68.7747 89.4219 68.3089 87.6832C67.8637 86.0218 67.0839 84.6571 65.9695 83.5892C64.8834 82.4722 63.5193 81.554 61.8771 80.8345L65.4799 94.2802ZM86.1288 72.038C83.4242 72.7627 80.9927 72.4203 78.8344 71.0109C76.6657 69.5628 75.1828 67.3513 74.3857 64.3762C73.8473 62.3671 73.8682 60.4359 74.4483 58.5826C75.0284 56.7293 76.0932 55.1396 77.6428 53.8133C79.1819 52.4484 81.072 51.4658 83.313 50.8653C86.9448 49.8922 90.1211 50.3869 92.8418 52.3496C95.5908 54.2634 97.5502 57.4032 98.7201 61.7692C99.7243 65.517 99.9106 69.3804 99.2789 73.3595C98.6369 77.2999 97.1441 80.8472 94.8006 84.0012C92.4467 87.1166 89.311 89.3233 85.3935 90.6215C85.239 90.6629 85.1165 90.5922 85.0261 90.4094C84.946 90.2652 84.9536 90.1389 85.0488 90.0306C87.6802 88.4144 89.6809 86.2219 91.0509 83.453C92.4596 80.6737 93.2328 77.6091 93.3705 74.2594C93.5365 70.8606 93.1536 67.4225 92.2219 63.9452C91.1762 60.0429 89.7671 57.0247 87.9944 54.8908C86.2217 52.7569 84.408 51.9385 82.5535 52.4354C81.1239 52.8184 80.2915 53.8076 80.0564 55.4028C79.8109 56.9594 80.0401 59.0513 80.7441 61.6786C81.5516 64.6923 82.5437 66.8491 83.7201 68.1488C84.9249 69.3996 86.3387 69.8076 87.9615 69.3728C89.1592 69.0519 90.063 68.5612 90.6729 67.9009L90.7888 67.8698C90.9047 67.8388 91.022 67.8902 91.1407 68.024C91.2877 68.1089 91.338 68.2196 91.2918 68.3562C90.2453 70.1688 88.5243 71.3961 86.1288 72.038Z" fill="white"/>
<path d="M43.5966 49.84C43.4024 49.1155 43.3539 48.3935 43.451 47.6738C43.5577 46.9516 43.79 46.2734 44.1481 45.6391C44.5061 45.0048 44.9712 44.4609 45.5433 44.0074C46.1128 43.5442 46.7695 43.2129 47.5132 43.0137C48.2473 42.8169 48.9768 42.7768 49.7016 42.8932C50.4238 42.9999 51.1034 43.2371 51.7403 43.6048C52.3771 43.9725 52.9223 44.4424 53.3759 45.0145C53.8294 45.5866 54.1532 46.2349 54.3473 46.9593C54.5466 47.7031 54.5929 48.4361 54.4862 49.1583C54.3795 49.8805 54.141 50.5552 53.7707 51.1824C53.4101 51.8071 52.9389 52.3474 52.3571 52.8035C51.7824 53.2474 51.128 53.5677 50.3939 53.7644C49.6501 53.9637 48.9184 54.0148 48.1988 53.9178C47.4792 53.8207 46.8083 53.5967 46.1863 53.2457C45.5617 52.8851 45.0226 52.4187 44.5691 51.8466C44.1226 51.2623 43.7984 50.5934 43.5966 49.84ZM45.1903 49.4129C45.3353 49.9538 45.5677 50.4351 45.8878 50.8566C46.2148 51.2659 46.6001 51.6026 47.0436 51.8669C47.4845 52.1214 47.9591 52.2893 48.4675 52.3705C48.9829 52.4395 49.5062 52.4028 50.0375 52.2604C50.5591 52.1206 51.021 51.8933 51.4232 51.5785C51.8229 51.254 52.1451 50.8726 52.39 50.4343C52.642 49.9837 52.8024 49.5007 52.8714 48.9853C52.9378 48.4603 52.8985 47.9273 52.7535 47.3864C52.6086 46.8454 52.3726 46.3703 52.0455 45.961C51.7255 45.5395 51.3438 45.1966 50.9003 44.9324C50.4664 44.6656 49.9905 44.4929 49.4725 44.4143C48.9642 44.3331 48.4492 44.3624 47.9276 44.5021C47.3867 44.6471 46.9164 44.8818 46.5168 45.2063C46.1171 45.5308 45.7913 45.9183 45.5394 46.3689C45.2874 46.8194 45.1282 47.3072 45.0619 47.8323C45.0052 48.3548 45.048 48.8817 45.1903 49.4129ZM67.3314 49.49L57.0775 43.6189L57.5654 43.6434L59.6277 51.166L58.0629 51.5853L55.1551 40.7331L55.2275 40.7137L65.3839 46.6265L64.9945 46.6221L62.9235 39.0087L64.4593 38.5972L67.3749 49.4784L67.3314 49.49ZM67.4269 37.802L68.9772 37.3866L71.3959 46.4132L76.6553 45.0039L77.0552 46.4963L70.2454 48.321L67.4269 37.802ZM79.924 42.0161L74.1358 36.0044L76.0484 35.4919L80.6139 40.4181L80.158 40.5713L81.6121 34.0011L83.5101 33.4925L81.4743 41.6007L82.4022 45.0636L80.8519 45.479L79.924 42.0161Z" fill="white"/>
</g>
<defs>
<filter id="filter0_d_1_10076" x="1.37109" y="4.78766" width="135.258" height="136.425" filterUnits="userSpaceOnUse" color-interpolation-filters="sRGB">
<feFlood flood-opacity="0" result="BackgroundImageFix"/>
<feColorMatrix in="SourceAlpha" type="matrix" values="0 0 0 0 0 0 0 0 0 0 0 0 0 0 0 0 0 0 127 0" result="hardAlpha"/>
<feOffset dy="4"/>
<feGaussianBlur stdDeviation="2"/>
<feComposite in2="hardAlpha" operator="out"/>
<feColorMatrix type="matrix" values="0 0 0 0 0 0 0 0 0 0 0 0 0 0 0 0 0 0 0.25 0"/>
<feBlend mode="normal" in2="BackgroundImageFix" result="effect1_dropShadow_1_10076"/>
<feBlend mode="normal" in="SourceGraphic" in2="effect1_dropShadow_1_10076" result="shape"/>
</filter>
</defs>
</svg>
