<svg width="138" height="138" viewBox="0 0 138 138" fill="none" xmlns="http://www.w3.org/2000/svg">
<path d="M62.9712 10.3093C65.0544 6.94713 69.9456 6.94713 72.0288 10.3093C73.7748 13.1273 77.6431 13.6835 80.1124 11.4715C83.0584 8.83245 87.7515 10.2105 88.803 14.0233C89.6844 17.2192 93.2393 18.8426 96.2317 17.4159C99.8019 15.7137 103.917 18.3581 103.851 22.3128C103.797 25.6275 106.75 28.1867 110.023 27.6608C113.929 27.0334 117.132 30.73 115.955 34.5061C114.969 37.6711 117.081 40.9587 120.37 41.3763C124.294 41.8746 126.326 46.3238 124.133 49.6154C122.295 52.3743 123.396 56.1241 126.434 57.4513C130.058 59.0348 130.754 63.8762 127.723 66.4166C125.182 68.546 125.182 72.454 127.723 74.5834C130.754 77.1238 130.058 81.9652 126.434 83.5487C123.396 84.8759 122.295 88.6257 124.133 91.3846C126.326 94.6762 124.294 99.1254 120.37 99.6236C117.081 100.041 114.969 103.329 115.955 106.494C117.132 110.27 113.929 113.967 110.023 113.339C106.75 112.813 103.797 115.373 103.851 118.687C103.917 122.642 99.8019 125.286 96.2317 123.584C93.2393 122.157 89.6844 123.781 88.803 126.977C87.7515 130.79 83.0584 132.168 80.1124 129.528C77.6431 127.316 73.7748 127.873 72.0288 130.691C69.9456 134.053 65.0544 134.053 62.9712 130.691C61.2252 127.873 57.3569 127.316 54.8876 129.528C51.9416 132.168 47.2485 130.79 46.197 126.977C45.3156 123.781 41.7607 122.157 38.7683 123.584C35.1981 125.286 31.0833 122.642 31.1486 118.687C31.2033 115.373 28.2498 112.813 24.9766 113.339C21.0715 113.967 17.8684 110.27 19.0452 106.494C20.0315 103.329 17.9186 100.041 14.6299 99.6236C10.7062 99.1254 8.67433 94.6762 10.8673 91.3846C12.7053 88.6257 11.6043 84.8759 8.56645 83.5487C4.94205 81.9652 4.24596 77.1238 7.27742 74.5834C9.81831 72.454 9.81831 68.546 7.27742 66.4167C4.24596 63.8762 4.94205 59.0348 8.56645 57.4513C11.6043 56.1241 12.7053 52.3743 10.8673 49.6154C8.67433 46.3238 10.7062 41.8746 14.6299 41.3763C17.9186 40.9587 20.0315 37.6711 19.0452 34.5061C17.8684 30.73 21.0715 27.0334 24.9766 27.6608C28.2498 28.1867 31.2033 25.6275 31.1486 22.3128C31.0833 18.3581 35.1981 15.7137 38.7683 17.4159C41.7607 18.8426 45.3156 17.2192 46.197 14.0233C47.2485 10.2105 51.9416 8.83245 54.8876 11.4715C57.3569 13.6835 61.2252 13.1273 62.9712 10.3093Z" fill="#82B4B4"/>
<path d="M65.9712 7.30928C68.0544 3.94713 72.9456 3.94713 75.0288 7.30928C76.7748 10.1273 80.6431 10.6835 83.1124 8.47152C86.0584 5.83245 90.7515 7.21048 91.803 11.0233C92.6844 14.2192 96.2393 15.8426 99.2317 14.4159C102.802 12.7137 106.917 15.3581 106.851 19.3128C106.797 22.6275 109.75 25.1867 113.023 24.6608C116.929 24.0334 120.132 27.73 118.955 31.5061C117.969 34.6711 120.081 37.9587 123.37 38.3763C127.294 38.8746 129.326 43.3238 127.133 46.6154C125.295 49.3743 126.396 53.1241 129.434 54.4513C133.058 56.0348 133.754 60.8762 130.723 63.4166C128.182 65.546 128.182 69.454 130.723 71.5834C133.754 74.1238 133.058 78.9652 129.434 80.5487C126.396 81.8759 125.295 85.6257 127.133 88.3846C129.326 91.6762 127.294 96.1254 123.37 96.6236C120.081 97.0413 117.969 100.329 118.955 103.494C120.132 107.27 116.929 110.967 113.023 110.339C109.75 109.813 106.797 112.373 106.851 115.687C106.917 119.642 102.802 122.286 99.2317 120.584C96.2393 119.157 92.6844 120.781 91.803 123.977C90.7515 127.79 86.0584 129.168 83.1124 126.528C80.6431 124.316 76.7748 124.873 75.0288 127.691C72.9456 131.053 68.0544 131.053 65.9712 127.691C64.2252 124.873 60.3569 124.316 57.8876 126.528C54.9416 129.168 50.2485 127.79 49.197 123.977C48.3156 120.781 44.7607 119.157 41.7683 120.584C38.1981 122.286 34.0833 119.642 34.1486 115.687C34.2033 112.373 31.2498 109.813 27.9766 110.339C24.0715 110.967 20.8684 107.27 22.0452 103.494C23.0315 100.329 20.9186 97.0413 17.6299 96.6236C13.7062 96.1254 11.6743 91.6762 13.8673 88.3846C15.7053 85.6257 14.6043 81.8759 11.5664 80.5487C7.94205 78.9652 7.24596 74.1238 10.2774 71.5834C12.8183 69.454 12.8183 65.546 10.2774 63.4167C7.24596 60.8762 7.94205 56.0348 11.5664 54.4513C14.6043 53.1241 15.7053 49.3743 13.8673 46.6154C11.6743 43.3238 13.7062 38.8746 17.6299 38.3763C20.9186 37.9587 23.0315 34.6711 22.0452 31.5061C20.8684 27.73 24.0715 24.0334 27.9766 24.6608C31.2498 25.1867 34.2033 22.6275 34.1486 19.3128C34.0833 15.3581 38.1981 12.7137 41.7683 14.4159C44.7607 15.8426 48.3156 14.2192 49.197 11.0233C50.2485 7.21047 54.9416 5.83245 57.8876 8.47152C60.3569 10.6835 64.2252 10.1273 65.9712 7.30928Z" fill="white"/>
<path d="M59.9462 87.053C60.6606 89.719 60.3389 92.2277 58.9813 94.5792C57.6519 96.8818 55.5566 98.6441 52.6955 99.8663L54.2328 105.604C54.3053 105.874 54.0711 106.082 53.5302 106.227C52.9506 106.382 52.6246 106.325 52.5521 106.054L51.0613 100.49L50.192 100.723C48.4533 101.189 46.5753 101.444 44.5578 101.488C42.53 101.493 41.1101 101.293 40.2979 100.89C40.0634 100.787 39.8726 100.693 39.7256 100.608C39.6069 100.475 39.5062 100.253 39.4233 99.944L36.7803 90.7756L36.7648 90.7177C36.7234 90.5631 36.7993 90.46 36.9925 90.4082C37.1753 90.3178 37.3067 90.3447 37.3868 90.4889C39.0587 92.4013 40.5164 93.9778 41.7598 95.2182C42.9929 96.42 44.3777 97.4155 45.9144 98.2047C47.451 98.9939 49.032 99.2535 50.6576 98.9836L46.7132 84.2629C46.1074 84.0111 45.1704 83.6825 43.9022 83.2769C41.7267 82.576 40.0034 81.9404 38.7325 81.3699C37.5001 80.7891 36.3565 79.9981 35.3014 78.9971C34.2464 77.996 33.5015 76.6841 33.0666 75.0614C32.3316 72.3181 32.7564 69.8853 34.3411 67.7628C35.9644 65.63 38.1887 64.0402 41.014 62.9932L39.7095 58.125C39.6681 57.9704 39.7143 57.8338 39.8482 57.7151C40.0207 57.5861 40.2228 57.4905 40.4546 57.4284C40.6865 57.3663 40.89 57.3531 41.0652 57.389C41.2405 57.4249 41.3488 57.5201 41.3902 57.6746L42.6792 62.4849L42.7371 62.4694C44.0894 62.1071 45.4973 61.8748 46.9607 61.7725C48.4137 61.6316 49.6118 61.6212 50.555 61.7412C50.9442 61.8025 51.2226 61.9143 51.3903 62.0764C51.5476 62.1999 51.6625 62.3969 51.7349 62.6673L54.0177 71.1868C54.0488 71.3027 53.9781 71.4252 53.8056 71.5542C53.6228 71.6446 53.4965 71.6371 53.4268 71.5315L52.5946 70.5121C51.1752 68.6149 49.7175 67.0384 48.2216 65.7828C46.7539 64.4782 45.0358 63.8619 43.0674 63.9338L46.7633 77.7272L48.1243 78.1701C50.3875 78.8888 52.2228 79.5566 53.6304 80.1733C55.038 80.79 56.3286 81.6658 57.5023 82.8007C58.6657 83.8969 59.4803 85.3144 59.9462 87.053ZM37.6376 70.7929C38.0517 72.3383 38.8636 73.5909 40.0732 74.5505C41.2724 75.4715 42.8387 76.2942 44.772 77.0185L41.3401 64.2103C39.8436 64.6527 38.7314 65.4476 38.0036 66.5951C37.3145 67.7322 37.1925 69.1315 37.6376 70.7929ZM52.3383 98.5333C53.5719 98.0371 54.4612 97.2605 55.0062 96.2034C55.5794 95.0973 55.6331 93.675 55.1673 91.9363C54.7221 90.2749 53.9423 88.9102 52.8279 87.8423C51.7418 86.7253 50.3777 85.8071 48.7355 85.0876L52.3383 98.5333Z" fill="#292E36"/>
<path d="M68.6886 95.0219C68.6113 95.0426 68.5416 94.937 68.4795 94.7052C68.4174 94.4734 68.425 94.3471 68.5023 94.3264C70.125 93.8916 71.3355 93.4637 72.1338 93.0428C72.9603 92.5728 73.4943 92.0156 73.7357 91.3712C73.9668 90.6881 73.9322 89.7863 73.632 88.6658L68.1657 68.2655C67.3893 65.3677 66.3249 64.1 64.9726 64.4623C64.0453 64.7108 62.8394 65.6965 61.3547 67.4195L61.2543 67.5085C61.1384 67.5396 61.0018 67.4933 60.8445 67.3699C60.7154 67.1974 60.6844 67.0815 60.7513 67.0221L70.3494 55.3192C70.4832 55.2005 70.6081 55.1256 70.724 55.0946C70.8013 55.0739 70.8941 55.1111 71.0024 55.2063C71.1391 55.2525 71.2177 55.3143 71.2384 55.3916L79.7173 87.0353C80.0176 88.1558 80.4192 88.9592 80.9222 89.4456C81.4149 89.8933 82.1173 90.1192 83.0294 90.1233C83.9312 90.0887 85.2321 89.8437 86.9321 89.3881C87.048 89.3571 87.1371 89.4575 87.1992 89.6893C87.2613 89.9211 87.2344 90.0525 87.1185 90.0836C85.5344 90.5081 84.2542 90.8304 83.2779 91.0506L77.8725 92.4368L72.5561 93.9235C71.6005 94.2209 70.3114 94.587 68.6886 95.0219ZM103.584 86.4792C99.7204 87.5144 96.2423 86.6657 93.1496 83.933C90.0466 81.1617 87.7031 76.8203 86.1192 70.9089C84.5352 64.9974 84.4044 60.1046 85.7267 56.2303C87.0387 52.3174 89.6651 49.833 93.6061 48.777C97.4312 47.7521 100.857 48.6356 103.882 51.4276C106.936 54.1707 109.26 58.5172 110.855 64.4673C112.428 70.3402 112.579 75.2278 111.305 79.1304C110.022 82.9943 107.448 85.4439 103.584 86.4792ZM103.953 85.0757C105.654 84.6202 106.524 82.9998 106.564 80.2144C106.605 77.429 105.817 73.0226 104.202 66.9952C103.012 62.552 101.847 59.0543 100.708 56.5022C99.6068 53.9398 98.4465 52.1595 97.2265 51.1612C96.0349 50.1139 94.7243 49.7818 93.2947 50.1649C91.4788 50.6515 90.5223 52.3364 90.4252 55.2198C90.3565 58.0542 91.1452 62.543 92.7912 68.6863C94.5202 75.1387 96.2455 79.6457 97.9671 82.2074C99.7171 84.7201 101.713 85.6762 103.953 85.0757Z" fill="#FF7D85"/>
<path d="M43.5966 49.8395C43.4024 49.115 43.3539 48.393 43.451 47.6733C43.5577 46.9511 43.79 46.2729 44.1481 45.6386C44.5061 45.0043 44.9712 44.4604 45.5433 44.0069C46.1128 43.5437 46.7695 43.2125 47.5132 43.0132C48.2473 42.8165 48.9768 42.7763 49.7016 42.8927C50.4238 42.9994 51.1034 43.2366 51.7403 43.6043C52.3771 43.972 52.9223 44.4419 53.3759 45.014C53.8294 45.5861 54.1532 46.2344 54.3473 46.9588C54.5466 47.7026 54.5929 48.4356 54.4862 49.1578C54.3795 49.88 54.141 50.5548 53.7707 51.182C53.4101 51.8066 52.9389 52.3469 52.3571 52.8031C51.7824 53.2469 51.128 53.5672 50.3939 53.7639C49.6501 53.9632 48.9184 54.0143 48.1988 53.9173C47.4792 53.8202 46.8083 53.5962 46.1863 53.2453C45.5617 52.8846 45.0226 52.4183 44.5691 51.8461C44.1226 51.2618 43.7984 50.5929 43.5966 49.8395ZM45.1903 49.4124C45.3353 49.9533 45.5677 50.4346 45.8878 50.8561C46.2148 51.2654 46.6001 51.6022 47.0436 51.8664C47.4845 52.1209 47.9591 52.2888 48.4675 52.37C48.9829 52.439 49.5062 52.4023 50.0375 52.2599C50.5591 52.1202 51.021 51.8929 51.4232 51.578C51.8229 51.2535 52.1451 50.8721 52.39 50.4338C52.642 49.9832 52.8024 49.5003 52.8714 48.9848C52.9378 48.4598 52.8985 47.9268 52.7535 47.3859C52.6086 46.845 52.3726 46.3698 52.0455 45.9606C51.7255 45.539 51.3438 45.1961 50.9003 44.9319C50.4664 44.6651 49.9905 44.4924 49.4725 44.4138C48.9642 44.3326 48.4492 44.3619 47.9276 44.5016C47.3867 44.6466 46.9164 44.8813 46.5168 45.2058C46.1171 45.5303 45.7913 45.9178 45.5394 46.3684C45.2874 46.8189 45.1282 47.3067 45.0619 47.8318C45.0052 48.3543 45.048 48.8812 45.1903 49.4124ZM67.3314 49.4895L57.0775 43.6184L57.5654 43.6429L59.6277 51.1655L58.0629 51.5848L55.1551 40.7326L55.2275 40.7132L65.3839 46.626L64.9945 46.6216L62.9235 39.0082L64.4593 38.5967L67.3749 49.4779L67.3314 49.4895ZM67.4269 37.8015L68.9772 37.3861L71.3959 46.4127L76.6553 45.0034L77.0552 46.4958L70.2454 48.3205L67.4269 37.8015ZM79.924 42.0157L74.1358 36.0039L76.0484 35.4914L80.6139 40.4176L80.158 40.5708L81.6121 34.0006L83.5101 33.4921L81.4743 41.6002L82.4022 45.0631L80.8519 45.4785L79.924 42.0157Z" fill="#292E36"/>
</svg>
