<svg width="672" height="408" viewBox="0 0 672 408" fill="none" xmlns="http://www.w3.org/2000/svg">
<rect width="672" height="408" fill="#C6EAF2"/>
<mask id="mask0_1_10041" style="mask-type:alpha" maskUnits="userSpaceOnUse" x="0" y="0" width="672" height="408">
<rect width="672" height="408" fill="#C4C4C4"/>
</mask>
<g mask="url(#mask0_1_10041)">
<path d="M380.994 -152.188C386.128 -159.426 396.872 -159.426 402.006 -152.188C406.271 -146.173 414.705 -144.961 420.493 -149.53C427.458 -155.028 437.766 -152.001 440.653 -143.61C443.051 -136.638 450.802 -133.098 457.642 -135.851C465.874 -139.165 474.913 -133.356 475.318 -124.491C475.655 -117.126 482.095 -111.546 489.433 -112.261C498.265 -113.121 505.301 -105.001 503.193 -96.3813C501.441 -89.2192 506.048 -82.051 513.29 -80.6693C522.007 -79.0063 526.47 -69.2332 522.019 -61.5565C518.32 -55.178 520.721 -47.0024 527.281 -43.6361C535.176 -39.5848 536.705 -28.95 530.271 -22.8384C524.925 -17.7604 524.925 -9.23958 530.271 -4.16158C536.705 1.95003 535.176 12.5848 527.281 16.6362C520.721 20.0024 518.32 28.1781 522.019 34.5565C526.47 42.2332 522.007 52.0063 513.29 53.6693C506.048 55.051 501.441 62.2192 503.193 69.3813C505.301 78.0011 498.265 86.121 489.433 85.2608C482.095 84.546 475.655 90.126 475.318 97.4915C474.913 106.356 465.874 112.165 457.642 108.851C450.802 106.098 443.051 109.638 440.653 116.61C437.766 125.001 427.458 128.028 420.493 122.53C414.705 117.961 406.271 119.173 402.006 125.188C396.872 132.426 386.128 132.426 380.994 125.188C376.729 119.173 368.295 117.961 362.507 122.53C355.542 128.028 345.234 125.001 342.347 116.61C339.949 109.638 332.198 106.098 325.358 108.851C317.126 112.165 308.087 106.356 307.682 97.4915C307.345 90.126 300.905 84.546 293.567 85.2608C284.735 86.121 277.699 78.0011 279.807 69.3813C281.559 62.2192 276.952 55.051 269.71 53.6693C260.993 52.0063 256.53 42.2332 260.981 34.5565C264.68 28.1781 262.279 20.0024 255.719 16.6362C247.824 12.5848 246.295 1.95003 252.729 -4.16158C258.075 -9.23958 258.075 -17.7604 252.729 -22.8384C246.295 -28.95 247.824 -39.5848 255.719 -43.6361C262.279 -47.0024 264.68 -55.178 260.981 -61.5565C256.53 -69.2332 260.993 -79.0063 269.71 -80.6693C276.952 -82.051 281.559 -89.2192 279.807 -96.3813C277.699 -105.001 284.735 -113.121 293.567 -112.261C300.905 -111.546 307.345 -117.126 307.682 -124.491C308.087 -133.356 317.126 -139.165 325.358 -135.851C332.198 -133.098 339.949 -136.638 342.347 -143.61C345.234 -152.001 355.542 -155.028 362.507 -149.53C368.295 -144.961 376.729 -146.173 380.994 -152.188Z" fill="#B3E1EB"/>
</g>
</svg>
