<svg width="26" height="21" viewBox="0 0 26 21" fill="none" xmlns="http://www.w3.org/2000/svg">
<path d="M25.5154 2.85597C24.5599 3.26853 23.5491 3.54034 22.5146 3.6628C23.6017 3.03019 24.4193 2.02517 24.8139 0.836239C23.7861 1.4335 22.6635 1.85257 21.4942 2.0755C21.0019 1.56267 20.4097 1.1547 19.7537 0.876394C19.0977 0.598083 18.3917 0.455242 17.6784 0.456552C14.7907 0.456552 12.4538 2.74522 12.4538 5.56651C12.4518 5.95894 12.497 6.3502 12.5886 6.73194C10.5179 6.63547 8.49025 6.11051 6.63539 5.19065C4.78054 4.27079 3.13931 2.97628 1.81671 1.38995C1.35271 2.16732 1.10732 3.05427 1.10619 3.95811C1.10619 5.72999 2.03639 7.2962 3.44098 8.21378C2.6088 8.19415 1.79368 7.97526 1.0648 7.57569V7.63897C1.0648 10.1175 2.86896 12.1794 5.25681 12.6487C4.80778 12.7677 4.34506 12.828 3.88035 12.828C3.5506 12.8286 3.2216 12.7968 2.89814 12.7331C3.56197 14.7634 5.49401 16.2399 7.78263 16.2821C5.92296 17.7064 3.63977 18.4763 1.29191 18.4706C0.875162 18.47 0.458799 18.4453 0.0449219 18.3968C2.4334 19.9125 5.20982 20.7142 8.04371 20.7065C17.6673 20.7065 22.9248 12.9177 22.9248 6.16241C22.9248 5.94093 22.919 5.71944 22.9084 5.50323C23.9288 4.78186 24.8117 3.8854 25.5154 2.85597Z" fill="white"/>
</svg>
