<svg width="200" height="160" viewBox="0 0 200 160" fill="none" xmlns="http://www.w3.org/2000/svg">
<path d="M13.22 15.38C13.22 16.5533 12.9933 17.5533 12.54 18.38C12.1 19.2067 11.4933 19.8333 10.72 20.26C9.94667 20.7 9.06 20.94 8.06 20.98V19.1C8.99333 19.0467 9.76 18.7133 10.36 18.1C10.9733 17.5 11.28 16.5733 11.28 15.32V3.54H13.22V15.38ZM16.4847 10.78C16.4847 9.78 16.6714 8.84 17.0447 7.96C17.4314 7.06667 17.9647 6.28 18.6447 5.6C19.3247 4.90667 20.1047 4.36667 20.9847 3.98C21.878 3.58 22.838 3.38 23.8647 3.38C24.878 3.38 25.8247 3.58 26.7047 3.98C27.598 4.36667 28.3847 4.90667 29.0647 5.6C29.758 6.28 30.298 7.06667 30.6847 7.96C31.0714 8.84 31.2647 9.78 31.2647 10.78C31.2647 11.8067 31.0714 12.7667 30.6847 13.66C30.298 14.5533 29.758 15.34 29.0647 16.02C28.3847 16.6867 27.598 17.2133 26.7047 17.6C25.8247 17.9733 24.878 18.16 23.8647 18.16C22.838 18.16 21.878 17.9733 20.9847 17.6C20.1047 17.2267 19.3247 16.7067 18.6447 16.04C17.9647 15.3733 17.4314 14.5933 17.0447 13.7C16.6714 12.8067 16.4847 11.8333 16.4847 10.78ZM18.4847 10.8C18.4847 11.56 18.6247 12.2733 18.9047 12.94C19.1847 13.5933 19.5714 14.1733 20.0647 14.68C20.558 15.1867 21.1314 15.5867 21.7847 15.88C22.438 16.16 23.1447 16.3 23.9047 16.3C24.6514 16.3 25.3514 16.16 26.0047 15.88C26.658 15.5867 27.2247 15.1867 27.7047 14.68C28.1847 14.1733 28.5647 13.5933 28.8447 12.94C29.1247 12.2733 29.2647 11.5533 29.2647 10.78C29.2647 10.02 29.1247 9.30667 28.8447 8.64C28.5647 7.96 28.178 7.36667 27.6847 6.86C27.1914 6.35333 26.618 5.96 25.9647 5.68C25.3114 5.38667 24.6114 5.24 23.8647 5.24C23.1047 5.24 22.398 5.38667 21.7447 5.68C21.0914 5.97333 20.518 6.37333 20.0247 6.88C19.5314 7.38667 19.1514 7.98 18.8847 8.66C18.618 9.32667 18.4847 10.04 18.4847 10.8ZM42.0131 6.12C41.5198 5.86667 40.9798 5.64667 40.3931 5.46C39.8065 5.27333 39.2331 5.18 38.6731 5.18C37.8998 5.18 37.2798 5.36 36.8131 5.72C36.3598 6.08 36.1331 6.56 36.1331 7.16C36.1331 7.61333 36.2798 8 36.5731 8.32C36.8665 8.62667 37.2531 8.89333 37.7331 9.12C38.2131 9.34667 38.7131 9.56 39.2331 9.76C39.6865 9.93333 40.1331 10.1267 40.5731 10.34C41.0131 10.5533 41.4065 10.82 41.7531 11.14C42.1131 11.46 42.3931 11.8533 42.5931 12.32C42.8065 12.7867 42.9131 13.3667 42.9131 14.06C42.9131 14.82 42.7198 15.5133 42.3331 16.14C41.9598 16.7667 41.4198 17.26 40.7131 17.62C40.0065 17.98 39.1665 18.16 38.1931 18.16C37.5531 18.16 36.9398 18.0867 36.3531 17.94C35.7798 17.7933 35.2465 17.6067 34.7531 17.38C34.2598 17.14 33.8198 16.8933 33.4331 16.64L34.2931 15.12C34.6131 15.3467 34.9798 15.5667 35.3931 15.78C35.8065 15.98 36.2398 16.1467 36.6931 16.28C37.1465 16.4 37.5865 16.46 38.0131 16.46C38.4665 16.46 38.9131 16.38 39.3531 16.22C39.8065 16.0467 40.1798 15.7867 40.4731 15.44C40.7665 15.0933 40.9131 14.6333 40.9131 14.06C40.9131 13.5667 40.7798 13.16 40.5131 12.84C40.2598 12.5067 39.9198 12.2267 39.4931 12C39.0665 11.76 38.6131 11.5467 38.1331 11.36C37.6798 11.1867 37.2198 11 36.7531 10.8C36.2865 10.5867 35.8531 10.3333 35.4531 10.04C35.0531 9.73333 34.7331 9.36 34.4931 8.92C34.2531 8.48 34.1331 7.94667 34.1331 7.32C34.1331 6.56 34.3131 5.9 34.6731 5.34C35.0465 4.76667 35.5531 4.32 36.1931 4C36.8331 3.66667 37.5665 3.48667 38.3931 3.46C39.3265 3.46 40.1465 3.57333 40.8531 3.8C41.5731 4.02667 42.2065 4.30667 42.7531 4.64L42.0131 6.12ZM46.1738 3.54H55.5738V5.4H48.1138V9.8H54.7738V11.66H48.1138V16.14H55.8537V18H46.1738V3.54ZM59.2206 3.54H67.8006V5.4H61.1606V10.02H66.9806V11.86H61.1606V18H59.2206V3.54ZM70.998 3.54H72.938V18H70.998V3.54ZM89.6117 18.46L78.4317 7.12L78.9917 7.26L79.0317 18H77.0917V3.1H77.1917L88.2517 14.48L87.7917 14.38L87.7517 3.54H89.6717V18.46H89.6117ZM93.83 3.54H103.23V5.4H95.77V9.8H102.43V11.66H95.77V16.14H103.51V18H93.83V3.54Z" fill="#292E36"/>
<path d="M57.5 102.16C57.98 102.08 58.34 102.24 58.58 102.64C58.86 103 58.92 103.4 58.76 103.84C58.64 104.24 58.34 104.48 57.86 104.56C56.62 104.72 55.24 104.94 53.72 105.22C51.64 112.34 48.38 118.9 43.94 124.9C39.5 130.9 34.14 135.9 27.86 139.9C26.58 140.74 25.56 141.38 24.8 141.82C24.04 142.3 22.88 142.96 21.32 143.8C19.8 144.68 18.44 145.34 17.24 145.78C16.04 146.22 14.72 146.64 13.28 147.04C11.88 147.48 10.54 147.66 9.26 147.58C7.98 147.54 6.82 147.26 5.78 146.74C4.22 145.98 3.16 144.92 2.6 143.56C2.04 142.24 1.96 140.82 2.36 139.3C2.72 137.78 3.24 136.34 3.92 134.98C4.56 133.62 5.34 132.36 6.26 131.2C11.74 124.04 18.44 118.06 26.36 113.26C34.28 108.42 42.76 105.06 51.8 103.18C52.72 99.74 53.36 96.3 53.72 92.86C54.08 89.38 54.1 85.84 53.78 82.24C53.5 78.64 52.86 75.26 51.86 72.1C50.86 68.94 49.34 65.98 47.3 63.22C45.3 60.46 42.88 58.18 40.04 56.38C37.88 55.02 35.54 54 33.02 53.32C30.54 52.6 28.04 52.24 25.52 52.24C23.04 52.24 20.56 52.68 18.08 53.56C15.64 54.4 13.44 55.64 11.48 57.28C7.64 60.52 5.12 64.62 3.92 69.58C2.72 74.54 3.1 79.3 5.06 83.86C5.26 84.34 5.22 84.76 4.94 85.12C4.66 85.44 4.3 85.6 3.86 85.6C3.42 85.56 3.1 85.32 2.9 84.88C1.66 82.04 0.98 79.12 0.86 76.12C0.74 73.12 1.1 70.32 1.94 67.72C2.78 65.08 4.06 62.6 5.78 60.28C7.5 57.92 9.48 55.94 11.72 54.34C14 52.74 16.58 51.54 19.46 50.74C22.34 49.9 25.3 49.62 28.34 49.9C32.22 50.26 35.74 51.28 38.9 52.96C42.1 54.64 44.76 56.76 46.88 59.32C49 61.84 50.78 64.74 52.22 68.02C53.7 71.3 54.74 74.7 55.34 78.22C55.98 81.7 56.28 85.26 56.24 88.9C56.16 93.46 55.56 98.04 54.44 102.64C55.64 102.44 56.66 102.28 57.5 102.16ZM48.02 113.68C49.18 111.28 50.2 108.66 51.08 105.82C42.28 107.78 34.02 111.14 26.3 115.9C18.62 120.62 12.4 126.44 7.64 133.36C5.6 136.24 4.58 138.42 4.58 139.9C4.58 140.98 4.76 141.88 5.12 142.6C5.48 143.36 5.9 143.9 6.38 144.22C6.86 144.58 7.48 144.8 8.24 144.88C9.04 144.96 9.76 144.96 10.4 144.88C11.04 144.8 11.82 144.62 12.74 144.34C13.66 144.1 14.34 143.88 14.78 143.68C15.22 143.52 15.8 143.3 16.52 143.02C16.64 142.98 16.74 142.94 16.82 142.9C21.26 141.1 25.44 138.8 29.36 136C37.56 130.04 43.78 122.6 48.02 113.68ZM65.8808 104.2C67.7608 104.68 69.0808 105.84 69.8408 107.68C70.6008 109.48 70.6408 111.3 69.9608 113.14C69.3608 114.9 68.4608 116.52 67.2608 118C66.0608 119.48 64.7008 120.26 63.1808 120.34C61.6208 120.42 60.4808 119.88 59.7608 118.72C59.0808 117.56 58.8808 116.22 59.1608 114.7C59.7208 111.58 61.3408 108.46 64.0208 105.34C64.1008 105.26 64.2008 105.18 64.3208 105.1C64.6008 104.34 65.1208 104.04 65.8808 104.2ZM61.9208 117.58C62.6808 118.26 63.8208 117.8 65.3408 116.2C67.1008 114.36 68.0408 112.44 68.1608 110.44C68.2808 108.72 67.5408 107.5 65.9408 106.78C65.6208 107.14 65.2808 107.58 64.9208 108.1C64.5608 108.58 64.1408 109.18 63.6608 109.9C63.1808 110.62 62.7608 111.34 62.4008 112.06C62.0408 112.78 61.7408 113.5 61.5008 114.22C61.2608 114.9 61.1608 115.54 61.2008 116.14C61.2808 116.74 61.5208 117.22 61.9208 117.58ZM90.3444 104.86C90.7444 104.58 91.1644 104.54 91.6044 104.74C92.0444 104.94 92.2844 105.24 92.3244 105.64C92.4044 106.04 92.2644 106.4 91.9044 106.72C88.9844 108.76 86.3244 110.74 83.9244 112.66C85.0044 113.34 85.8844 114.02 86.5644 114.7C87.2844 115.34 87.9044 116.08 88.4244 116.92C88.9844 117.76 89.1844 118.68 89.0244 119.68C88.8644 120.68 88.3644 121.68 87.5244 122.68C86.6844 123.68 85.5844 124.6 84.2244 125.44C82.8644 126.32 81.4244 126.98 79.9044 127.42C78.4244 127.9 77.0044 127.88 75.6444 127.36C74.2844 126.84 73.3044 125.78 72.7044 124.18C71.7844 121.66 73.1244 118.76 76.7244 115.48C77.6044 114.72 78.6044 113.86 79.7244 112.9C79.6444 112.86 79.1244 112.58 78.1644 112.06C77.2044 111.54 76.5644 111.18 76.2444 110.98C75.9244 110.78 75.4044 110.44 74.6844 109.96C74.0044 109.48 73.4644 109.02 73.0644 108.58C72.6644 108.14 72.3044 107.66 71.9844 107.14C70.7444 104.98 71.4244 102.56 74.0244 99.88C76.2644 97.56 78.8444 96.06 81.7644 95.38C84.9644 94.62 86.9844 95.32 87.8244 97.48C87.9444 97.84 88.0444 98.24 88.1244 98.68C88.1644 99.16 88.0044 99.54 87.6444 99.82C87.2844 100.06 86.8844 100.12 86.4444 100C86.0044 99.84 85.7644 99.52 85.7244 99.04C85.4044 96.84 83.3844 96.86 79.6644 99.1C78.0244 100.06 76.7844 100.96 75.9444 101.8C75.2244 102.52 74.7044 103.14 74.3844 103.66C74.1044 104.18 74.0244 104.76 74.1444 105.4C74.3044 106 74.7444 106.64 75.4644 107.32C75.8244 107.64 76.2444 107.98 76.7244 108.34C77.2044 108.66 77.6044 108.92 77.9244 109.12C78.2844 109.32 78.7844 109.62 79.4244 110.02C80.1044 110.38 80.5444 110.62 80.7444 110.74C80.8644 110.78 81.0244 110.88 81.2244 111.04C81.4644 111.16 81.6444 111.24 81.7644 111.28C84.4044 109.16 87.2644 107.02 90.3444 104.86ZM84.9444 121.84C85.4644 121.28 85.8444 120.74 86.0844 120.22C86.3244 119.7 86.4044 119.22 86.3244 118.78C86.2444 118.3 86.0844 117.86 85.8444 117.46C85.6444 117.06 85.3044 116.66 84.8244 116.26C84.3844 115.86 83.9444 115.52 83.5044 115.24C83.0644 114.92 82.5444 114.58 81.9444 114.22C80.8644 115.14 79.8444 116 78.8844 116.8C78.7244 116.96 78.4444 117.2 78.0444 117.52C77.6844 117.84 77.3844 118.1 77.1444 118.3C76.9044 118.5 76.6444 118.78 76.3644 119.14C76.1244 119.46 75.9244 119.78 75.7644 120.1C74.8844 122.06 74.9644 123.46 76.0044 124.3C77.0844 125.14 78.5244 125.32 80.3244 124.84C81.8044 124.48 83.3444 123.48 84.9444 121.84ZM114.273 104.56C114.633 104.2 115.013 104.12 115.413 104.32C115.813 104.48 116.053 104.78 116.133 105.22C116.253 105.62 116.153 106.02 115.833 106.42C107.593 114.86 100.473 118.36 94.4727 116.92C92.3527 116.44 90.7527 115.52 89.6727 114.16C88.5927 112.76 88.1727 111.22 88.4127 109.54C88.6127 107.82 89.3927 106.18 90.7527 104.62C91.8327 103.46 93.2327 102.52 94.9527 101.8C97.5127 100.76 98.7727 101.4 98.7327 103.72C98.7327 103.76 98.7327 103.8 98.7327 103.84C98.6927 105.4 97.7527 106.88 95.9127 108.28C94.0727 109.68 92.4127 110.14 90.9327 109.66C90.7727 111.46 91.5327 112.8 93.2127 113.68C94.8927 114.56 96.7327 114.82 98.7327 114.46C101.573 113.94 104.213 112.84 106.653 111.16C109.133 109.44 111.673 107.24 114.273 104.56ZM95.2527 104.2C94.6927 104.24 94.0727 104.58 93.3927 105.22C92.7527 105.86 92.1927 106.56 91.7127 107.32C92.5527 107.72 93.5727 107.24 94.7727 105.88C95.5727 104.96 95.7927 104.4 95.4327 104.2C95.3927 104.2 95.3327 104.2 95.2527 104.2ZM127.665 107.44C128.145 107.36 128.505 107.5 128.745 107.86C129.025 108.22 129.085 108.62 128.925 109.06C128.805 109.5 128.505 109.76 128.025 109.84C123.905 110.48 119.905 111.76 116.025 113.68C115.905 118.48 115.865 123.36 115.905 128.32C116.585 128.88 117.065 129.3 117.345 129.58C120.705 132.7 122.865 137.8 123.825 144.88C124.185 147.56 124.085 150.22 123.525 152.86C122.685 156.98 120.885 157.9 118.125 155.62C117.325 154.94 116.625 154 116.025 152.8C115.465 151.64 115.025 150.48 114.705 149.32C114.425 148.16 114.185 146.74 113.985 145.06C113.825 143.38 113.725 141.98 113.685 140.86C113.645 139.78 113.605 138.4 113.565 136.72C113.525 135.08 113.505 134 113.505 133.48C113.465 132.6 113.425 131.42 113.385 129.94C109.305 126.86 104.505 125.58 98.9853 126.1C98.3853 126.14 97.9853 125.88 97.7853 125.32C97.5453 124.8 97.6453 124.34 98.0853 123.94C103.565 118.74 108.745 114.82 113.625 112.18C113.865 107.1 114.225 102 114.705 96.88C114.745 96.36 114.805 95.42 114.885 94.06C115.005 92.7 115.105 91.46 115.185 90.34C115.265 89.18 115.405 87.82 115.605 86.26C115.805 84.66 116.045 83.24 116.325 82C116.605 80.76 117.005 79.52 117.525 78.28C118.045 77 118.625 75.98 119.265 75.22C119.945 74.46 120.785 73.9 121.785 73.54C122.785 73.14 123.885 73.06 125.085 73.3C125.565 73.42 125.885 73.7 126.045 74.14C126.205 74.58 126.165 74.98 125.925 75.34C125.685 75.7 125.325 75.82 124.845 75.7C123.885 75.5 122.985 75.82 122.145 76.66C121.345 77.5 120.645 78.76 120.045 80.44C119.485 82.12 118.965 84.06 118.485 86.26C118.045 88.46 117.665 90.98 117.345 93.82C117.025 96.62 116.765 99.4 116.565 102.16C116.405 104.92 116.265 107.86 116.145 110.98C119.865 109.22 123.705 108.04 127.665 107.44ZM121.725 150.76C122.045 147.2 121.705 143.8 120.705 140.56C119.705 137.36 118.125 134.6 115.965 132.28C116.045 135.24 116.125 137.3 116.205 138.46C116.565 143.14 117.065 146.72 117.705 149.2C118.225 151.16 118.925 152.54 119.805 153.34C120.725 154.18 121.325 153.64 121.605 151.72L121.725 150.76ZM113.325 126.64C113.285 122.68 113.345 118.82 113.505 115.06C109.825 117.14 105.985 120 101.985 123.64C106.225 123.76 110.005 124.76 113.325 126.64ZM128.451 103.36C128.651 102.92 128.971 102.68 129.411 102.64C129.851 102.6 130.211 102.74 130.491 103.06C130.811 103.38 130.891 103.78 130.731 104.26C128.691 109.38 127.711 114.58 127.791 119.86C127.791 120.54 127.451 120.88 126.771 120.88C126.051 120.88 125.611 120.56 125.451 119.92C125.411 119.8 125.391 119.68 125.391 119.56C125.311 114.16 126.331 108.76 128.451 103.36ZM132.471 96.46C132.751 97.14 132.551 97.68 131.871 98.08L127.611 100.6C127.331 100.76 127.031 100.78 126.711 100.66C126.391 100.5 126.171 100.28 126.051 100C125.771 99.36 125.971 98.82 126.651 98.38L130.911 95.86C131.191 95.7 131.491 95.7 131.811 95.86C132.131 95.98 132.351 96.18 132.471 96.46ZM174.001 104.74C174.321 104.38 174.701 104.24 175.141 104.32C175.621 104.4 175.941 104.64 176.101 105.04C176.301 105.4 176.261 105.78 175.981 106.18C174.981 107.42 173.801 108.7 172.441 110.02C171.081 111.34 169.481 112.66 167.641 113.98C165.801 115.26 164.001 116.28 162.241 117.04C160.481 117.76 158.681 118.04 156.841 117.88C155.001 117.68 153.421 116.88 152.101 115.48C151.381 114.68 150.401 113.5 149.161 111.94C147.961 110.38 147.081 109.28 146.521 108.64C146.161 108.28 145.821 108 145.501 107.8C145.181 107.56 144.901 107.4 144.661 107.32C144.421 107.24 144.161 107.26 143.881 107.38C143.601 107.5 143.361 107.62 143.161 107.74C143.001 107.82 142.781 108.02 142.501 108.34C142.221 108.66 142.021 108.92 141.901 109.12C141.781 109.32 141.561 109.66 141.241 110.14C140.921 110.58 140.701 110.88 140.581 111.04C140.381 111.36 139.841 112.38 138.961 114.1C138.121 115.78 137.241 117.22 136.321 118.42C135.441 119.58 134.601 120.22 133.801 120.34C133.321 120.42 132.941 120.28 132.661 119.92C132.381 119.52 132.181 119.1 132.061 118.66C131.901 118.18 131.841 117.62 131.881 116.98C131.921 116.3 131.961 115.78 132.001 115.42C132.041 115.06 132.141 114.48 132.301 113.68C132.461 112.88 132.561 112.42 132.601 112.3C132.841 110.78 133.301 108.62 133.981 105.82C134.661 102.98 135.061 101.28 135.181 100.72C135.301 100.28 135.581 99.98 136.021 99.82C136.461 99.66 136.861 99.7 137.221 99.94C137.581 100.18 137.701 100.54 137.581 101.02C137.381 101.9 137.041 103.36 136.561 105.4C136.081 107.4 135.721 108.94 135.481 110.02C135.001 112.38 134.701 114.02 134.581 114.94C134.581 115.06 134.581 115.24 134.581 115.48C134.901 114.88 135.301 114.24 135.781 113.56C136.301 112.88 136.841 112.16 137.401 111.4C137.961 110.64 138.361 110.06 138.601 109.66C138.721 109.5 138.881 109.26 139.081 108.94C139.321 108.62 139.521 108.34 139.681 108.1C139.841 107.86 140.021 107.6 140.221 107.32C140.461 107 140.681 106.72 140.881 106.48C141.081 106.24 141.301 106 141.541 105.76C141.781 105.52 142.021 105.3 142.261 105.1C142.541 104.9 142.801 104.74 143.041 104.62C143.681 104.46 144.241 104.38 144.721 104.38C145.201 104.38 145.721 104.56 146.281 104.92C146.841 105.28 147.321 105.66 147.721 106.06C148.161 106.46 148.621 106.96 149.101 107.56C149.621 108.16 150.041 108.72 150.361 109.24C150.721 109.72 151.081 110.24 151.441 110.8C151.841 111.36 152.181 111.8 152.461 112.12C153.861 113.84 155.121 114.86 156.241 115.18C157.361 115.46 158.961 115.22 161.041 114.46C165.921 112.66 170.241 109.42 174.001 104.74ZM197.71 104.56C198.07 104.2 198.45 104.12 198.85 104.32C199.25 104.48 199.49 104.78 199.57 105.22C199.69 105.62 199.59 106.02 199.27 106.42C191.03 114.86 183.91 118.36 177.91 116.92C175.79 116.44 174.19 115.52 173.11 114.16C172.03 112.76 171.61 111.22 171.85 109.54C172.05 107.82 172.83 106.18 174.19 104.62C175.27 103.46 176.67 102.52 178.39 101.8C180.95 100.76 182.21 101.4 182.17 103.72C182.17 103.76 182.17 103.8 182.17 103.84C182.13 105.4 181.19 106.88 179.35 108.28C177.51 109.68 175.85 110.14 174.37 109.66C174.21 111.46 174.97 112.8 176.65 113.68C178.33 114.56 180.17 114.82 182.17 114.46C185.01 113.94 187.65 112.84 190.09 111.16C192.57 109.44 195.11 107.24 197.71 104.56ZM178.69 104.2C178.13 104.24 177.51 104.58 176.83 105.22C176.19 105.86 175.63 106.56 175.15 107.32C175.99 107.72 177.01 107.24 178.21 105.88C179.01 104.96 179.23 104.4 178.87 104.2C178.83 104.2 178.77 104.2 178.69 104.2Z" fill="#292E36"/>
</svg>
